<?xml version="1.0" standalone="no"?>
<!DOCTYPE svg PUBLIC "-//W3C//DTD SVG 20010904//EN"
 "http://www.w3.org/TR/2001/REC-SVG-20010904/DTD/svg10.dtd">
<svg version="1.0" xmlns="http://www.w3.org/2000/svg"
 width="266.000000pt" height="190.000000pt" viewBox="0 0 266.000000 190.000000"
 preserveAspectRatio="xMidYMid meet">

<g transform="translate(0.000000,190.000000) scale(0.100000,-0.100000)"
fill="#000000" stroke="none">
<path d="M1438 1383 c17 -2 47 -2 65 0 17 2 3 4 -33 4 -36 0 -50 -2 -32 -4z"/>
<path d="M1318 1373 c12 -2 32 -2 45 0 12 2 2 4 -23 4 -25 0 -35 -2 -22 -4z"/>
<path d="M1578 1373 c12 -2 30 -2 40 0 9 3 -1 5 -23 4 -22 0 -30 -2 -17 -4z"/>
<path d="M1253 1363 c9 -2 23 -2 30 0 6 3 -1 5 -18 5 -16 0 -22 -2 -12 -5z"/>
<path d="M1653 1363 c9 -2 23 -2 30 0 6 3 -1 5 -18 5 -16 0 -22 -2 -12 -5z"/>
<path d="M1198 1353 c6 -2 18 -2 25 0 6 3 1 5 -13 5 -14 0 -19 -2 -12 -5z"/>
<path d="M1708 1353 c6 -2 18 -2 25 0 6 3 1 5 -13 5 -14 0 -19 -2 -12 -5z"/>
<path d="M568 1343 c6 -2 18 -2 25 0 6 3 1 5 -13 5 -14 0 -19 -2 -12 -5z"/>
<path d="M653 1343 c9 -2 23 -2 30 0 6 3 -1 5 -18 5 -16 0 -22 -2 -12 -5z"/>
<path d="M1148 1343 c6 -2 18 -2 25 0 6 3 1 5 -13 5 -14 0 -19 -2 -12 -5z"/>
<path d="M1360 1340 c-77 -8 -115 -15 -280 -50 -102 -21 -280 -27 -324 -10
-41 15 -31 -3 39 -68 80 -76 134 -108 210 -125 l60 -14 -59 -8 c-124 -16 -252
19 -324 88 l-34 32 20 -53 c27 -70 64 -117 121 -153 64 -41 124 -56 286 -73
177 -19 254 -46 305 -107 14 -18 17 -17 68 8 46 23 70 27 185 32 126 6 135 8
187 39 30 18 72 40 93 49 28 12 37 22 37 40 0 27 43 73 113 121 26 18 55 45
64 59 16 24 16 26 0 37 -28 21 -318 115 -417 135 -116 24 -250 32 -350 21z
m377 -164 c9 -9 -48 -27 -66 -21 -9 3 -34 21 -56 40 l-40 35 78 -24 c43 -14
81 -27 84 -30z m-27 -61 c126 -34 220 -55 248 -55 26 0 29 -12 7 -30 -8 -7
-15 -9 -15 -5 0 4 -6 3 -13 -3 -8 -7 -18 -7 -27 -2 -9 5 -19 5 -27 -2 -10 -8
-13 -6 -13 7 0 17 -1 17 -20 0 -12 -11 -20 -13 -20 -6 0 9 -5 9 -20 1 -16 -9
-19 -8 -13 6 5 15 3 14 -22 -2 l-28 -18 8 24 7 25 -26 -24 c-23 -22 -26 -22
-26 -6 0 17 -1 17 -18 2 -21 -19 -37 -22 -26 -5 4 7 3 8 -4 4 -13 -8 -16 -45
-6 -71 6 -14 12 -11 42 17 32 31 34 31 29 9 l-6 -23 26 23 26 24 -6 -23 c-6
-23 -5 -24 15 -5 16 13 22 15 25 5 4 -10 8 -10 21 0 12 11 16 11 20 0 3 -10 7
-10 18 -1 11 9 14 9 14 0 0 -7 5 -9 13 -4 21 13 37 12 37 -3 0 -8 -8 -17 -17
-21 -10 -3 -49 -24 -86 -46 -68 -40 -70 -40 -202 -48 -100 -5 -145 -12 -179
-28 l-46 -20 -46 49 c-54 58 -102 76 -224 85 -108 9 -153 20 -185 48 l-26 22
83 1 c93 1 143 16 229 69 31 19 81 42 110 50 79 22 247 13 369 -20z"/>
<path d="M1388 1123 c-19 -5 -43 -61 -53 -119 -6 -37 -5 -37 12 11 10 28 29
65 41 83 13 17 22 31 20 31 -2 -1 -10 -3 -20 -6z"/>
<path d="M1310 1079 c-6 -11 -10 -29 -8 -39 2 -14 8 -9 20 20 17 41 7 56 -12
19z"/>
<path d="M1262 1020 c0 -14 2 -19 5 -12 2 6 2 18 0 25 -3 6 -5 1 -5 -13z"/>
<path d="M1795 1334 c28 -7 55 -13 60 -13 17 2 -69 27 -90 27 -11 0 3 -6 30
-14z"/>
<path d="M509 1321 l-23 -18 46 -21 c52 -23 56 -27 74 -91 14 -46 14 -46 8 -6
-8 55 -28 83 -76 105 l-41 18 29 16 c16 8 24 15 18 16 -7 0 -22 -8 -35 -19z"/>
<path d="M715 1330 c27 -12 43 -12 25 0 -8 5 -22 9 -30 9 -10 0 -8 -3 5 -9z"/>
<path d="M1108 1333 c7 -3 16 -2 19 1 4 3 -2 6 -13 5 -11 0 -14 -3 -6 -6z"/>
<path d="M1058 1323 c6 -2 18 -2 25 0 6 3 1 5 -13 5 -14 0 -19 -2 -12 -5z"/>
<path d="M768 1313 c7 -3 16 -2 19 1 4 3 -2 6 -13 5 -11 0 -14 -3 -6 -6z"/>
<path d="M1008 1313 c6 -2 18 -2 25 0 6 3 1 5 -13 5 -14 0 -19 -2 -12 -5z"/>
<path d="M1970 1281 c149 -54 148 -54 120 -38 -30 18 -197 77 -213 76 -7 0 35
-17 93 -38z"/>
<path d="M654 1226 c84 -88 118 -109 216 -132 63 -15 78 -11 24 6 -24 8 -71
45 -129 101 -89 87 -124 109 -169 109 -19 0 -9 -14 58 -84z"/>
<path d="M843 1303 c26 -2 68 -2 95 0 26 2 4 3 -48 3 -52 0 -74 -1 -47 -3z"/>
<path d="M2143 1214 c51 -27 31 -89 -46 -140 -75 -50 -117 -95 -117 -126 0
-20 -7 -31 -22 -38 -14 -5 -17 -9 -7 -9 21 -1 39 19 39 45 0 26 48 78 108 119
56 37 82 71 82 106 0 27 -31 60 -55 59 -5 -1 2 -8 18 -16z"/>
<path d="M620 1135 c0 -5 5 -17 10 -25 5 -8 10 -10 10 -5 0 6 -5 17 -10 25 -5
8 -10 11 -10 5z"/>
<path d="M658 1053 c16 -27 177 -201 216 -231 9 -7 22 -12 29 -9 7 2 -7 13
-29 25 -38 19 -94 73 -94 90 0 4 -30 38 -66 75 -36 37 -61 60 -56 50z"/>
<path d="M821 914 c16 -20 75 -50 114 -58 17 -3 95 -10 175 -16 80 -5 164 -16
188 -24 59 -21 52 -10 -12 20 -52 24 -94 31 -309 54 -54 5 -111 17 -127 25
-37 19 -46 19 -29 -1z"/>
<path d="M1890 885 c-6 -8 -39 -28 -73 -45 -56 -28 -58 -30 -28 -30 18 0 41
-5 52 -10 13 -7 19 -7 19 0 0 5 18 10 39 10 33 0 40 -4 44 -22 4 -19 5 -18 6
5 1 29 1 29 -56 27 -84 -3 -92 -1 -58 17 17 8 39 23 50 33 11 10 27 20 35 23
13 5 12 6 -1 6 -9 1 -22 -6 -29 -14z"/>
<path d="M805 779 c-56 -49 -91 -134 -46 -110 10 6 21 7 25 4 3 -3 6 -1 6 6 0
8 -7 10 -20 6 -24 -8 -25 -3 -6 33 17 33 41 55 81 76 19 10 24 16 13 16 -10 0
-33 -14 -53 -31z"/>
<path d="M837 760 c-56 -36 -60 -45 -10 -24 20 9 54 14 75 12 39 -4 62 17 36
34 -24 15 -54 8 -101 -22z"/>
<path d="M1164 780 c-48 -19 -71 -92 -38 -124 18 -19 72 -20 95 -3 39 30 51
94 23 121 -17 17 -47 20 -80 6z m54 -53 c4 -35 -14 -59 -42 -55 -28 4 -33 44
-10 69 24 27 48 20 52 -14z"/>
<path d="M980 768 c-1 -7 -7 -39 -14 -70 -14 -55 -13 -58 5 -58 12 0 19 7 19
20 0 13 10 24 26 30 36 14 36 14 29 -21 -6 -26 -4 -30 11 -27 12 2 21 20 30
58 17 72 17 80 -1 80 -8 0 -17 -11 -21 -25 -4 -15 -16 -28 -30 -31 -13 -3 -24
-11 -24 -17 0 -6 -2 -8 -4 -6 -3 3 -1 21 3 42 8 33 7 37 -10 37 -10 0 -19 -6
-19 -12z"/>
<path d="M1294 753 c-3 -16 -10 -45 -16 -67 -10 -42 -7 -51 17 -43 15 6 20 28
17 77 -1 16 6 5 19 -27 15 -38 26 -53 39 -53 23 0 36 54 25 97 -7 26 -8 26
-15 8 -5 -11 -6 -31 -4 -45 2 -14 -3 -5 -12 20 -25 66 -59 82 -70 33z"/>
<path d="M1444 753 c-3 -16 -10 -44 -15 -63 -13 -51 -13 -50 39 -50 54 0 90
26 78 55 -3 9 -1 25 4 35 18 34 2 50 -51 50 -45 0 -49 -2 -55 -27z m81 -8 c0
-5 -13 -11 -29 -13 -17 -2 -26 0 -22 6 3 6 0 13 -6 16 -7 3 3 4 22 3 19 -1 35
-6 35 -12z m-12 -52 c10 -10 -13 -33 -33 -33 -10 0 -20 9 -23 20 -4 16 0 20
22 20 15 0 31 -3 34 -7z"/>
<path d="M1586 771 c-3 -4 -8 -33 -12 -64 -6 -54 -6 -56 20 -63 61 -15 93 14
109 104 6 27 3 32 -12 32 -14 0 -20 -10 -25 -44 -4 -24 -13 -50 -21 -56 -20
-17 -48 -5 -41 17 16 61 17 83 2 83 -8 0 -17 -4 -20 -9z"/>
<path d="M1722 722 c-15 -74 -15 -82 2 -82 17 0 28 37 12 44 -6 2 -1 5 10 5
15 1 24 -7 28 -24 4 -16 13 -25 26 -25 17 0 18 3 9 26 -8 22 -6 29 11 41 14
10 20 24 18 41 -3 25 -7 27 -53 30 l-51 3 -12 -59z m88 18 c0 -14 -7 -20 -24
-20 -15 0 -26 7 -29 20 -4 17 0 20 24 20 22 0 29 -5 29 -20z"/>
<path d="M1875 768 c-4 -14 -25 -116 -25 -123 0 -3 7 -5 15 -5 13 0 24 27 40
108 5 25 3 32 -10 32 -8 0 -17 -6 -20 -12z"/>
<path d="M1932 740 c0 -14 2 -19 5 -12 2 6 2 18 0 25 -3 6 -5 1 -5 -13z"/>
<path d="M821 712 c-16 -30 9 -66 46 -70 39 -4 74 13 67 33 -5 11 -11 12 -31
2 -21 -9 -27 -8 -39 8 -8 11 -12 25 -10 32 8 20 -22 15 -33 -5z"/>
<path d="M1916 674 c-4 -20 -5 -38 -3 -40 3 -3 8 11 11 32 4 20 5 38 3 40 -3
3 -8 -11 -11 -32z"/>
<path d="M790 651 c0 -10 39 -46 43 -40 2 2 -7 14 -20 26 -13 12 -23 19 -23
14z"/>
<path d="M921 620 c-12 -7 -9 -10 11 -15 14 -4 39 -5 54 -2 25 3 24 4 -8 6
-20 0 -38 5 -40 11 -2 6 -9 6 -17 0z"/>
<path d="M1825 611 c-71 -5 -80 -8 -81 -26 -1 -15 0 -16 3 -2 4 14 16 17 84
17 46 0 79 4 79 10 0 6 -1 9 -2 8 -2 -1 -39 -4 -83 -7z"/>
<path d="M858 603 c6 -2 18 -2 25 0 6 3 1 5 -13 5 -14 0 -19 -2 -12 -5z"/>
<path d="M1085 596 c-20 -15 -15 -46 8 -46 20 0 40 27 33 45 -7 19 -17 19 -41
1z m31 -25 c-8 -13 -36 -15 -36 -3 0 4 5 13 12 20 14 14 34 0 24 -17z"/>
<path d="M1157 598 c-23 -12 -22 -48 1 -48 21 0 42 18 42 36 0 17 -23 24 -43
12z m26 -23 c-5 -16 -33 -21 -33 -7 0 13 22 32 31 26 5 -2 6 -11 2 -19z"/>
<path d="M1218 576 c4 -27 6 -28 13 -11 11 29 11 32 -4 38 -10 4 -12 -3 -9
-27z"/>
<path d="M1266 588 c-9 -36 -8 -40 16 -36 17 2 23 10 23 28 0 33 -30 39 -39 8z
m31 -8 c-1 -11 -7 -20 -13 -20 -7 0 -10 8 -7 20 3 11 9 20 14 20 4 0 7 -9 6
-20z"/>
<path d="M1336 588 c-21 -29 -20 -33 7 -34 20 -1 23 2 19 27 -5 35 -7 35 -26
7z"/>
<path d="M1390 596 c0 -8 -3 -21 -6 -30 -5 -12 0 -16 17 -15 15 1 18 3 8 6
-11 3 -15 12 -11 28 2 14 2 25 -2 25 -3 0 -6 -6 -6 -14z"/>
<path d="M1436 588 c-9 -35 -8 -38 17 -37 14 1 16 3 6 6 -11 3 -15 12 -11 28
6 31 -4 33 -12 3z"/>
<path d="M1515 594 c-21 -21 -14 -39 16 -41 15 -1 18 0 6 3 -20 6 -19 41 1 37
7 -2 12 2 12 7 0 15 -17 12 -35 -6z"/>
<path d="M1566 588 c-9 -35 -8 -38 17 -37 14 1 16 3 6 6 -11 3 -15 12 -11 28
6 31 -4 33 -12 3z"/>
<path d="M1646 585 c-8 -31 -23 -33 -29 -2 -4 19 -4 18 -6 -5 -1 -38 36 -40
45 -3 4 14 4 28 1 31 -2 3 -7 -7 -11 -21z"/>
<path d="M1675 595 c-3 -8 -7 -22 -10 -30 -3 -10 3 -15 19 -15 28 0 43 45 19
54 -21 8 -23 8 -28 -9z m22 -15 c-1 -11 -5 -20 -9 -20 -4 0 -8 9 -8 20 0 11 4
20 9 20 6 0 9 -9 8 -20z"/>
<path d="M1026 584 c-9 -23 -8 -42 2 -28 4 6 12 13 19 15 8 3 7 7 -2 16 -10
10 -14 9 -19 -3z"/>
<path d="M992 570 c0 -14 2 -19 5 -12 2 6 2 18 0 25 -3 6 -5 1 -5 -13z"/>
<path d="M1728 538 c-3 -9 -36 -15 -109 -19 l-104 -5 96 -2 c69 -1 101 2 115
12 10 8 16 17 13 21 -4 3 -9 0 -11 -7z"/>
<path d="M1490 531 c0 -8 -80 -12 -242 -13 l-243 -3 238 -2 c220 -3 288 3 258
21 -6 4 -11 2 -11 -3z"/>
</g>
</svg>
